<?xml version="1.0" encoding="iso-8859-1"?>
<!-- Uploaded to: SVG Repo, www.svgrepo.com, Generator: SVG Repo Mixer Tools -->
<svg version="1.1" id="Layer_1" xmlns="http://www.w3.org/2000/svg" xmlns:xlink="http://www.w3.org/1999/xlink" 
	 viewBox="0 0 512 512" xml:space="preserve">
<g>
	
		<rect x="138.309" y="208.635" transform="matrix(-0.6169 0.7871 -0.7871 -0.6169 451.7585 326.9202)" style="fill:#0BA4E0;" width="16.001" height="129.558"/>
	
		<rect x="300.909" y="265.426" transform="matrix(-0.7869 0.617 -0.617 -0.7869 822.1631 262.9573)" style="fill:#0BA4E0;" width="129.546" height="15.999"/>
</g>
<ellipse style="fill:#D6D6D6;" cx="71.936" cy="73.816" rx="41.648" ry="42.096"/>
<path style="fill:#0BA4E0;" d="M143.856,201.048c0-40.144-32.208-72.688-71.936-72.688S0,160.904,0,201.048H143.856z"/>
<ellipse style="fill:#D6D6D6;" cx="440.064" cy="73.816" rx="41.648" ry="42.096"/>
<path style="fill:#0BA4E0;" d="M512,201.048c0-40.144-32.208-72.688-71.936-72.688s-71.936,32.544-71.936,72.688H512z"/>
<ellipse style="fill:#D6D6D6;" cx="256" cy="353.064" rx="41.648" ry="42.096"/>
<path style="fill:#0BA4E0;" d="M328,480.28c0-40.144-32.208-72.688-71.936-72.688s-71.936,32.544-71.936,72.688L328,480.28
	L328,480.28z"/>
</svg>